<?xml version="1.0" standalone="no"?><!DOCTYPE svg PUBLIC "-//W3C//DTD SVG 1.1//EN" "http://www.w3.org/Graphics/SVG/1.1/DTD/svg11.dtd"><svg t="1512785600126" class="icon" style="" viewBox="0 0 1024 1024" version="1.1" xmlns="http://www.w3.org/2000/svg" p-id="1042" xmlns:xlink="http://www.w3.org/1999/xlink" width="200" height="200"><defs><style type="text/css"></style></defs><path d="M588.701 499.548l207.63-207.63c23.394-23.394 23.394-58.495 0-81.884s-58.495-23.394-81.884 0l-207.63 207.63-207.63-207.63c-23.394-23.394-58.495-23.394-81.884 0s-23.394 58.495 0 81.884l207.63 207.63-207.63 207.63c-23.394 23.394-23.394 58.495 0 81.884 11.705 11.705 26.326 17.55 40.947 17.55s29.238-5.847 40.947-17.55l207.63-207.63 207.63 207.63c11.705 11.705 26.326 17.55 40.947 17.55s29.238-5.847 40.947-17.55c23.394-23.394 23.394-58.495 0-81.884l-207.63-207.63z" p-id="1043" fill="#ffffff"></path></svg>